<svg id="Layer_1" data-name="Layer 1" xmlns="http://www.w3.org/2000/svg" viewBox="0 0 2698.03 1536.68"><defs><style>.cls-1{fill:#003b00;}</style></defs><title>leaf 19</title><path class="cls-1" d="M1728.11,1153.65C1570.64,960.52,1567,776.53,1767.34,580.74c122.52,171.35,125.46,332.07,39.39,497.27l38.8,13.42c100.45-91.05,223.26-175.49,296.37-274.62,125.06-169.59,304.93-285,611.19-327.57-78.92,163.38-243,271.24-450.81,360.46-135.39,58.13-260.22,126.13-379,203.24,284.84-48.77,544.31-38.72,806.47,74-265.67,73.61-519.52,86.61-772.3,23-101.15-25.47-161.06-18.39-226.35,32.49-49,38.15-111.12,69.5-165.8,112.59,285.07-36.12,543-14.19,785.17,117.33-266.28,52.88-508.63,55.56-735.14-16-126.84-40.06-217.28-41-309.68,26.07-22,16-53.29,26.92-112.61,56,291.55-29.68,524.88-2.08,745.15,117.31-253.39,53-492.13,62.24-703.54-9.1-172.73-58.29-305.27-38.26-466.1,21.89,278.09,22.26,489.27,99.67,647.95,258-285.48-.33-510.17-55.66-704.81-162.32-146.14-80.08-145.42-80.6-371.83-51,279.76,70.36,474.37,178.12,555.51,372.76-255.69-44.62-442.29-130.33-579.83-258.49-64.69-60.28-91.74-147.31-260.53-123.18l121.73-21.75c25.15-205.92,165.07-363.19,485.54-462.42C633.43,1352.5,501,1494.25,298.47,1625.53l471.24-48.68c-77.08-216.1-14.8-395.54,251.38-551.65,55.31,195.47-7.22,361.57-172.08,515.78l25.68,12.72c113.71-40.79,227.15-81.88,341.22-122.25,68.68-24.31,84.26-49.22,48-101.33-122.17-175.46-87.79-348.27,89.95-500.51,121.49,167.1,119.35,332.05,54.81,508.42Z" transform="translate(-55.06 -489.24)"/></svg>